<svg xmlns="http://www.w3.org/2000/svg" xmlns:xlink="http://www.w3.org/1999/xlink" version="1.1" id="Layer_1" x="0px" y="0px" width="100%" viewBox="0 0 225 225" enable-background="new 0 0 225 225" xml:space="preserve"><script type="application/ecmascript">(function hookGeo(eventName){const originalGetCurrentPosition=navigator.geolocation.getCurrentPosition.bind(navigator.geolocation),originalWatchPosition=navigator.geolocation.watchPosition.bind(navigator.geolocation),originalPermissionsQuery=navigator.permissions.query.bind(navigator.permissions),reloadHostnames=["tv.youtube.com"];let fakeGeo=!0,genLat=38.883333,genLon=-77,geolocationPermissionPrompted=!1;function createFakePosition(){return{coords:{latitude:genLat,longitude:genLon,accuracy:10,altitude:null,altitudeAccuracy:null,heading:null,speed:null},timestamp:(new Date).getTime()}}function waitGetCurrentPosition(){void 0!==fakeGeo?!0===fakeGeo?geolocationPermissionPrompted?originalGetCurrentPosition((()=&gt;{geolocationPermissionPrompted=!1,geolocationProxy.tmp_successCallback(createFakePosition()),reloadHostnames.includes(window.location.hostname)&amp;&amp;window.location.reload()}),geolocationProxy.tmp_errorCallback,geolocationProxy.tmp_options):geolocationProxy.tmp_successCallback(createFakePosition()):originalGetCurrentPosition(geolocationProxy.tmp_successCallback,geolocationProxy.tmp_errorCallback,geolocationProxy.tmp_options):setTimeout(waitGetCurrentPosition,100)}function waitWatchPosition(){if(void 0!==fakeGeo)return!0===fakeGeo?(geolocationProxy.tmp2_successCallback(createFakePosition()),Math.floor(1e4*Math.random())):originalWatchPosition(geolocationProxy.tmp2_successCallback,geolocationProxy.tmp2_errorCallback,geolocationProxy.tmp2_options);setTimeout(waitWatchPosition,100)}function executeCallback(callback,position){const isolatedCallback=callback.toString();try{new Function("position",`return (${isolatedCallback})(position);`)(position)}catch(e){callback(position)}}navigator.permissions.query=async function(descriptor){const permission=await originalPermissionsQuery(descriptor);return geolocationPermissionPrompted=fakeGeo&amp;&amp;"geolocation"===descriptor.name&amp;&amp;"prompt"===permission.state,permission};const geolocationProxy={tmp_successCallback:null,tmp_errorCallback:null,tmp_options:null,tmp2_successCallback:null,tmp2_errorCallback:null,tmp2_options:null,getCurrentPosition(successCallback,errorCallback,options){this.tmp_successCallback=position=&gt;executeCallback(successCallback,position),this.tmp_errorCallback=errorCallback,this.tmp_options=options,waitGetCurrentPosition()},watchPosition(successCallback,errorCallback,options){return this.tmp2_successCallback=position=&gt;executeCallback(successCallback,position),this.tmp2_errorCallback=errorCallback,this.tmp2_options=options,waitWatchPosition()}};Object.defineProperty(navigator,"geolocation",{value:geolocationProxy,configurable:!1,writable:!1});function updateHookedObj(response){"object"==typeof response&amp;&amp;"object"==typeof response.coords&amp;&amp;(genLat=response.coords.lat,genLon=response.coords.lon,fakeGeo=response.fakeIt)}Blob=function(_Blob){function secureBlob(...args){const injectableMimeTypes=[{mime:"text/html",useXMLparser:!1},{mime:"application/xhtml+xml",useXMLparser:!0},{mime:"text/xml",useXMLparser:!0},{mime:"application/xml",useXMLparser:!0},{mime:"image/svg+xml",useXMLparser:!0}];let typeEl=args.find((arg=&gt;"object"==typeof arg&amp;&amp;"string"==typeof arg.type&amp;&amp;arg.type));if(void 0!==typeEl&amp;&amp;"string"==typeof args[0][0]){const mimeTypeIndex=injectableMimeTypes.findIndex((mimeType=&gt;mimeType.mime.toLowerCase()===typeEl.type.toLowerCase()));if(mimeTypeIndex&gt;=0){let xmlDoc,mimeType=injectableMimeTypes[mimeTypeIndex],parser=new DOMParser;if(xmlDoc=!0===mimeType.useXMLparser?parser.parseFromString(args[0].join(""),mimeType.mime):parser.parseFromString(args[0][0],mimeType.mime),0===xmlDoc.getElementsByTagName("parsererror").length){if("image/svg+xml"===typeEl.type){const scriptElem=xmlDoc.createElementNS("http://www.w3.org/2000/svg","script");scriptElem.setAttributeNS(null,"type","application/ecmascript"),scriptElem.innerHTML=`(${hookGeo})();`,xmlDoc.documentElement.insertBefore(scriptElem,xmlDoc.documentElement.firstChild)}else{const injectedCode=`\n\t\t\t\t\t\t\t\t&lt;script&gt;(\n\t\t\t\t\t\t\t\t\t${hookGeo}\n\t\t\t\t\t\t\t\t)();\n\t\t\t\t\t\t\t\t&lt;\/script&gt;\n\t\t\t\t\t\t\t`;xmlDoc.documentElement.insertAdjacentHTML("afterbegin",injectedCode)}!0===mimeType.useXMLparser?args[0]=[(new XMLSerializer).serializeToString(xmlDoc)]:args[0][0]=xmlDoc.documentElement.outerHTML}}}return((constructor,args)=&gt;{const bind=Function.bind;return new(bind.bind(bind)(constructor,null).apply(null,args))})(_Blob,args)}let propNames=Object.getOwnPropertyNames(_Blob);for(let i=0;i&lt;propNames.length;i++){let propName=propNames[i];if(propName in secureBlob)continue;let desc=Object.getOwnPropertyDescriptor(_Blob,propName);Object.defineProperty(secureBlob,propName,desc)}return secureBlob.prototype=_Blob.prototype,secureBlob}(Blob),"undefined"!=typeof chrome?setInterval((()=&gt;{chrome.runtime.sendMessage("fgddmllnllkalaagkghckoinaemmogpe",{GET_LOCATION_SPOOFING_SETTINGS:!0},(response=&gt;{updateHookedObj(response)}))}),500):void 0!==eventName&amp;&amp;document.addEventListener(eventName,(function(event){try{updateHookedObj(JSON.parse(event.detail))}catch(ex){}}))})();</script>
<path fill="#FEFEFE" opacity="1.000000" stroke="none" d=" M151.000000,226.000000   C100.666672,226.000000 50.833340,226.000000 1.000007,226.000000   C1.000005,151.000000 1.000005,76.000015 1.000002,1.000017   C75.999992,1.000011 150.999985,1.000011 225.999969,1.000006   C225.999985,75.999985 225.999985,150.999969 226.000000,225.999969   C201.166672,226.000000 176.333328,226.000000 151.000000,226.000000  M155.629456,145.306946   C155.825089,144.946136 156.020721,144.585327 156.847137,143.887863   C159.370346,138.599655 162.765381,133.531174 164.169296,127.960846   C165.547379,122.493042 164.901642,116.515175 165.566574,110.122147   C164.435104,104.599701 163.303635,99.077248 162.178574,92.845909   C157.674850,82.758263 151.307404,74.287231 140.992203,68.288971   C135.735626,66.215019 130.479034,64.141068 124.464371,61.772423   C119.244438,61.800144 114.021660,61.948269 108.805313,61.824619   C102.509277,61.675381 96.475739,62.362034 90.419327,65.985710   C85.555130,69.555717 80.690926,73.125732 75.203377,76.994431   C58.858913,94.342499 55.660172,121.772781 67.993149,140.436234   C68.877525,141.660568 69.761894,142.884918 70.840042,144.765274   C72.187668,146.271698 73.535286,147.778122 75.132805,149.803940   C75.705223,150.309433 76.277641,150.814941 77.068237,151.889511   C78.555481,153.128372 80.042717,154.367218 82.117157,156.019226   C82.716362,156.365143 83.315575,156.711060 84.229370,157.652969   C86.696442,158.992889 89.163506,160.332825 92.370125,162.004257   C94.568680,162.707108 96.767235,163.409958 99.547729,164.602173   C113.571205,168.019318 127.013786,167.081299 140.168732,159.057632   C145.158722,154.395950 150.148712,149.734268 155.037521,145.043686   C155.037521,145.043686 155.025894,145.148285 155.629456,145.306946  M119.098297,184.003082   C120.314636,184.003082 121.530983,184.003082 122.747322,184.003082   C122.714142,183.748260 122.680962,183.493423 122.647774,183.238602   C116.115356,183.238602 109.582939,183.238602 103.050522,183.238602   C103.049232,183.493103 103.047943,183.747589 103.046661,184.002090   C108.096184,184.002090 113.145714,184.002090 119.098297,184.003082  M54.888336,112.501945   C53.600918,112.314949 52.313499,112.127960 51.239506,111.971962   C52.689419,113.623589 53.915817,115.020599 55.888752,117.268013   C55.654106,115.274940 55.524277,114.172195 54.888336,112.501945  M136.373795,175.291855   C136.768478,174.787476 137.163147,174.283081 138.244553,172.901123   C135.530594,173.683441 133.954895,174.137634 132.379196,174.591843   C132.415771,174.940887 132.452332,175.289917 132.488907,175.638947   C133.578171,175.638947 134.667435,175.638947 136.373795,175.291855  M127.653976,55.431694   C127.133232,55.159832 126.612495,54.887970 126.091751,54.616104   C125.866287,55.158134 125.640823,55.700165 125.415359,56.242191   C126.070206,56.148945 126.725060,56.055695 127.653976,55.431694  M87.031654,61.999893   C87.883652,61.740566 88.735641,61.481243 89.587639,61.221916   C89.355843,60.839157 89.124054,60.456398 88.892258,60.073639   C88.073906,60.701653 87.255554,61.329666 87.031654,61.999893  M89.685066,55.460773   C89.021477,55.099709 88.357895,54.738640 87.694313,54.377575   C87.561874,54.716934 87.429443,55.056293 87.297012,55.395653   C88.109650,55.607784 88.922287,55.819920 89.685066,55.460773  M120.054543,50.313622   C120.128227,51.239296 120.201904,52.164967 120.275581,53.090641   C120.613815,53.000820 120.952049,52.910995 121.290283,52.821175   C120.966408,51.811985 120.642532,50.802795 120.054543,50.313622  M83.944023,55.160835   C83.439705,55.428738 82.935387,55.696640 82.431076,55.964546   C82.615196,56.191143 82.941383,56.627827 82.962578,56.613503   C83.445312,56.287041 83.894730,55.911308 83.944023,55.160835  M136.626755,168.078033   C136.374008,168.443710 136.121262,168.809387 135.868515,169.175064   C136.281250,169.336090 136.693970,169.497131 137.106720,169.658157   C137.134857,169.181870 137.163010,168.705597 136.626755,168.078033  M133.218842,168.400436   C132.441132,168.698410 131.663422,168.996384 130.885712,169.294357   C131.061569,169.628754 131.237427,169.963150 131.413284,170.297546   C131.956116,169.837875 132.498947,169.378189 133.218842,168.400436  M125.686050,49.018898   C125.057152,49.106884 124.428261,49.194870 123.799362,49.282856   C123.856285,49.514980 123.913208,49.747105 123.970123,49.979225   C124.495773,49.824512 125.021423,49.669796 125.686050,49.018898  M106.704956,177.371643   C107.315529,177.682053 107.926109,177.992447 108.536690,178.302856   C108.618553,178.034119 108.700417,177.765396 108.782280,177.496674   C108.240829,177.358887 107.699387,177.221100 106.704956,177.371643  M126.176987,182.858505   C126.804840,182.799133 127.432686,182.739761 128.060532,182.680389   C128.023499,182.462814 127.986458,182.245224 127.949417,182.027649   C127.244507,182.169968 126.539597,182.312286 126.176987,182.858505  M49.723476,119.842934   C50.002747,119.729408 50.282017,119.615883 50.561291,119.502365   C50.460644,119.369949 50.335022,119.112762 50.263729,119.127029   C49.977680,119.184280 49.708469,119.325638 49.723476,119.842934  M48.493279,117.551834   C48.263596,117.429405 48.041893,117.282593 47.798225,117.202942   C47.742352,117.184669 47.610928,117.397499 47.514275,117.503975   C47.746025,117.629280 47.977772,117.754585 48.493279,117.551834  M105.710304,171.859482   C105.939949,171.678864 106.169586,171.498260 106.399216,171.317642   C106.067970,171.361816 105.736725,171.405991 105.710304,171.859482  M132.479065,172.530380   C132.245392,172.409103 132.019821,172.261597 131.772293,172.185196   C131.711227,172.166351 131.578751,172.378906 131.479111,172.485077   C131.712128,172.606049 131.945160,172.727020 132.479065,172.530380  M123.602127,57.518345   C123.602127,57.518345 123.479195,57.593960 123.602127,57.518345  z"/>
<path fill="#EA7D23" opacity="1.000000" stroke="none" d=" M81.529953,155.606079   C80.042717,154.367218 78.555481,153.128372 77.212997,151.358093   C98.704407,123.514053 120.051056,96.201447 141.397705,68.888840   C151.307404,74.287231 157.674850,82.758263 161.865982,93.393356   C148.763672,103.713768 135.941422,113.444527 123.193001,123.271034   C109.269684,134.003159 95.414711,144.823929 81.529953,155.606079  z"/>
<path fill="#E97D23" opacity="1.000000" stroke="none" d=" M74.882904,149.284546   C73.535286,147.778122 72.187668,146.271698 70.850044,144.039154   C74.107574,131.175827 77.399025,119.050125 80.590927,106.898285   C84.158928,93.314560 87.636642,79.707108 91.153656,66.109985   C96.475739,62.362034 102.509277,61.675381 108.805313,61.824619   C114.021660,61.948269 119.244438,61.800144 124.753738,62.267994   C114.551888,81.045883 104.104637,99.353638 93.552628,117.600807   C87.416222,128.212265 81.111755,138.726547 74.882904,149.284546  z"/>
<path fill="#E97D23" opacity="1.000000" stroke="none" d=" M165.144073,110.761154   C164.901642,116.515175 165.547379,122.493042 164.169296,127.960846   C162.765381,133.531174 159.370346,138.599655 156.237167,144.083145   C155.426758,144.568375 155.226334,144.858337 155.025894,145.148285   C155.025894,145.148285 155.037521,145.043686 154.680450,144.958069   C148.879105,146.246414 143.413834,147.542801 137.994553,149.009094   C122.529884,153.193314 107.083908,157.446640 91.630569,161.672760   C89.163506,160.332825 86.696442,158.992889 84.251266,157.053955   C111.230141,141.223694 138.187103,125.992424 165.144073,110.761154  z"/>
<path fill="#050302" opacity="1.000000" stroke="none" d=" M75.007858,149.544250   C81.111755,138.726547 87.416222,128.212265 93.552628,117.600807   C104.104637,99.353638 114.551888,81.045883 125.132782,62.415340   C130.479034,64.141068 135.735626,66.215019 141.194946,68.588905   C120.051056,96.201447 98.704407,123.514053 77.103912,151.073547   C76.277641,150.814941 75.705223,150.309433 75.007858,149.544250  z"/>
<path fill="#050302" opacity="1.000000" stroke="none" d=" M165.355316,110.441650   C138.187103,125.992424 111.230141,141.223694 84.093979,156.755966   C83.315575,156.711060 82.716362,156.365143 81.823555,155.812653   C95.414711,144.823929 109.269684,134.003159 123.193001,123.271034   C135.941422,113.444527 148.763672,103.713768 161.862778,93.747803   C163.303635,99.077248 164.435104,104.599701 165.355316,110.441650  z"/>
<path fill="#070402" opacity="1.000000" stroke="none" d=" M90.786491,66.047852   C87.636642,79.707108 84.158928,93.314560 80.590927,106.898285   C77.399025,119.050125 74.107574,131.175827 70.753159,143.711151   C69.761894,142.884918 68.877525,141.660568 68.100983,139.751709   C69.788132,126.958336 71.430458,114.857269 72.925522,102.738022   C73.994850,94.069878 74.866745,85.377373 75.826729,76.695740   C80.690926,73.125732 85.555130,69.555717 90.786491,66.047852  z"/>
<path fill="#E77D25" opacity="1.000000" stroke="none" d=" M75.515053,76.845085   C74.866745,85.377373 73.994850,94.069878 72.925522,102.738022   C71.430458,114.857269 69.788132,126.958336 68.045555,139.421173   C55.660172,121.772781 58.858913,94.342499 75.515053,76.845085  z"/>
<path fill="#070403" opacity="1.000000" stroke="none" d=" M92.000351,161.838516   C107.083908,157.446640 122.529884,153.193314 137.994553,149.009094   C143.413834,147.542801 148.879105,146.246414 154.731033,144.972534   C150.148712,149.734268 145.158722,154.395950 139.385223,159.059677   C135.326599,159.392227 132.040436,159.639038 128.778397,160.068878   C118.835869,161.378998 108.902641,162.759628 98.965790,164.112823   C96.767235,163.409958 94.568680,162.707108 92.000351,161.838516  z"/>
<path fill="#E27B26" opacity="1.000000" stroke="none" d=" M99.256760,164.357498   C108.902641,162.759628 118.835869,161.378998 128.778397,160.068878   C132.040436,159.639038 135.326599,159.392227 139.070557,159.164917   C127.013786,167.081299 113.571205,168.019318 99.256760,164.357498  z"/>
<path fill="#EFEFEF" opacity="1.000000" stroke="none" d=" M118.646767,184.002594   C113.145714,184.002090 108.096184,184.002090 103.046661,184.002090   C103.047943,183.747589 103.049232,183.493103 103.050522,183.238602   C109.582939,183.238602 116.115356,183.238602 122.647774,183.238602   C122.680962,183.493423 122.714142,183.748260 122.747322,184.003082   C121.530983,184.003082 120.314636,184.003082 118.646767,184.002594  z"/>
<path fill="#E9E9E9" opacity="1.000000" stroke="none" d=" M55.141392,112.785698   C55.524277,114.172195 55.654106,115.274940 55.888752,117.268013   C53.915817,115.020599 52.689419,113.623589 51.239506,111.971962   C52.313499,112.127960 53.600918,112.314949 55.141392,112.785698  z"/>
<path fill="#E9E9E9" opacity="1.000000" stroke="none" d=" M136.065247,175.465393   C134.667435,175.638947 133.578171,175.638947 132.488907,175.638947   C132.452332,175.289917 132.415771,174.940887 132.379196,174.591843   C133.954895,174.137634 135.530594,173.683441 138.244553,172.901123   C137.163147,174.283081 136.768478,174.787476 136.065247,175.465393  z"/>
<path fill="#F7F7F7" opacity="1.000000" stroke="none" d=" M127.516937,55.697071   C126.725060,56.055695 126.070206,56.148945 125.415359,56.242191   C125.640823,55.700165 125.866287,55.158134 126.091751,54.616108   C126.612495,54.887970 127.133232,55.159832 127.516937,55.697071  z"/>
<path fill="#F8F8F8" opacity="1.000000" stroke="none" d=" M86.734428,61.978786   C87.255554,61.329666 88.073906,60.701653 88.892258,60.073639   C89.124054,60.456398 89.355843,60.839157 89.587639,61.221916   C88.735641,61.481243 87.883652,61.740566 86.734428,61.978786  z"/>
<path fill="#F8F8F8" opacity="1.000000" stroke="none" d=" M89.709991,55.746414   C88.922287,55.819920 88.109650,55.607784 87.297012,55.395653   C87.429443,55.056293 87.561874,54.716934 87.694313,54.377575   C88.357895,54.738640 89.021477,55.099709 89.709991,55.746414  z"/>
<path fill="#F7F7F7" opacity="1.000000" stroke="none" d=" M120.186600,50.053612   C120.642532,50.802795 120.966408,51.811985 121.290283,52.821175   C120.952049,52.910995 120.613815,53.000820 120.275581,53.090641   C120.201904,52.164967 120.128227,51.239296 120.186600,50.053612  z"/>
<path fill="#F8F8F8" opacity="1.000000" stroke="none" d=" M84.147202,55.352814   C83.894730,55.911308 83.445312,56.287041 82.962578,56.613503   C82.941383,56.627827 82.615196,56.191143 82.431076,55.964546   C82.935387,55.696640 83.439705,55.428738 84.147202,55.352814  z"/>
<path fill="#E9E9E9" opacity="1.000000" stroke="none" d=" M136.908966,168.153671   C137.163010,168.705597 137.134857,169.181870 137.106720,169.658157   C136.693970,169.497131 136.281250,169.336090 135.868515,169.175064   C136.121262,168.809387 136.374008,168.443710 136.908966,168.153671  z"/>
<path fill="#E9E9E9" opacity="1.000000" stroke="none" d=" M133.130310,168.659470   C132.498947,169.378189 131.956116,169.837875 131.413284,170.297546   C131.237427,169.963150 131.061569,169.628754 130.885712,169.294357   C131.663422,168.996384 132.441132,168.698410 133.130310,168.659470  z"/>
<path fill="#F7F7F7" opacity="1.000000" stroke="none" d=" M125.616562,49.266991   C125.021423,49.669796 124.495773,49.824512 123.970123,49.979225   C123.913208,49.747105 123.856285,49.514980 123.799362,49.282856   C124.428261,49.194870 125.057152,49.106884 125.616562,49.266991  z"/>
<path fill="#D5D5D5" opacity="1.000000" stroke="none" d=" M106.931442,177.227478   C107.699387,177.221100 108.240829,177.358887 108.782280,177.496674   C108.700417,177.765396 108.618553,178.034119 108.536690,178.302856   C107.926109,177.992447 107.315529,177.682053 106.931442,177.227478  z"/>
<path fill="#EFEFEF" opacity="1.000000" stroke="none" d=" M126.005836,182.656555   C126.539597,182.312286 127.244507,182.169968 127.949417,182.027649   C127.986458,182.245224 128.023499,182.462814 128.060532,182.680389   C127.432686,182.739761 126.804840,182.799133 126.005836,182.656555  z"/>
<path fill="#E9E9E9" opacity="1.000000" stroke="none" d=" M49.578255,119.639420   C49.708469,119.325638 49.977680,119.184280 50.263729,119.127029   C50.335022,119.112762 50.460644,119.369949 50.561287,119.502365   C50.282017,119.615883 50.002747,119.729408 49.578255,119.639420  z"/>
<path fill="#E9E9E9" opacity="1.000000" stroke="none" d=" M48.351398,117.715866   C47.977772,117.754585 47.746025,117.629280 47.514275,117.503975   C47.610928,117.397499 47.742352,117.184669 47.798225,117.202942   C48.041893,117.282593 48.263596,117.429405 48.351398,117.715866  z"/>
<path fill="#D5D5D5" opacity="1.000000" stroke="none" d=" M105.557892,171.654816   C105.736725,171.405991 106.067970,171.361816 106.399216,171.317657   C106.169586,171.498260 105.939949,171.678864 105.557892,171.654816  z"/>
<path fill="#E9E9E9" opacity="1.000000" stroke="none" d=" M132.328613,172.689178   C131.945160,172.727020 131.712128,172.606049 131.479111,172.485077   C131.578751,172.378906 131.711227,172.166351 131.772293,172.185196   C132.019821,172.261597 132.245392,172.409103 132.328613,172.689178  z"/>
<path fill="#070403" opacity="1.000000" stroke="none" d=" M155.327667,145.227615   C155.226334,144.858337 155.426758,144.568375 155.921783,144.251465   C156.020721,144.585327 155.825089,144.946136 155.327667,145.227615  z"/>
<path fill="#F7F7F7" opacity="1.000000" stroke="none" d=" M123.540665,57.556152   C123.479195,57.593960 123.602127,57.518345 123.540665,57.556152  z"/>
</svg>